<svg width="36" height="36" viewBox="0 0 36 36" fill="none" xmlns="http://www.w3.org/2000/svg">
<path d="M15.8908 34.4131L0.635634 19.1579C0.404495 18.9267 0.240385 18.6763 0.143306 18.4067C0.0477684 18.137 0 17.8481 0 17.5399C0 17.2317 0.0477684 16.9428 0.143306 16.6731C0.240385 16.4035 0.404495 16.1531 0.635634 15.9219L15.8908 0.666747C16.3146 0.242992 16.8439 0.0210989 17.4788 0.0010668C18.1152 -0.0174243 18.6645 0.204468 19.1268 0.666747C19.5891 1.0905 19.8302 1.61981 19.8503 2.25467C19.8688 2.89108 19.6469 3.44042 19.1846 3.9027L7.85875 15.2285H33.6886C34.3435 15.2285 34.8928 15.4496 35.3366 15.8919C35.7789 16.3357 36 16.885 36 17.5399C36 18.1948 35.7789 18.7434 35.3366 19.1856C34.8928 19.6294 34.3435 19.8513 33.6886 19.8513H7.85875L19.1846 31.1771C19.6083 31.6009 19.8302 32.1402 19.8503 32.7951C19.8688 33.45 19.6469 33.9893 19.1846 34.4131C18.7608 34.8753 18.2215 35.1065 17.5666 35.1065C16.9117 35.1065 16.3531 34.8753 15.8908 34.4131Z" fill="#E7793C"/>
</svg>
