<svg width="36" height="36" viewBox="0 0 36 36" fill="none" xmlns="http://www.w3.org/2000/svg">
<path d="M20.1092 0.693384L35.3644 15.9486C35.5955 16.1797 35.7596 16.4301 35.8567 16.6998C35.9522 16.9694 36 17.2584 36 17.5665C36 17.8747 35.9522 18.1636 35.8567 18.4333C35.7596 18.703 35.5955 18.9534 35.3644 19.1845L20.1092 34.4397C19.6854 34.8635 19.1561 35.0853 18.5212 35.1054C17.8848 35.1239 17.3355 34.902 16.8732 34.4397C16.4109 34.0159 16.1698 33.4866 16.1497 32.8518C16.1312 32.2154 16.3531 31.666 16.8154 31.2038L28.1413 19.8779L2.3114 19.8779C1.6565 19.8779 1.10716 19.6568 0.663372 19.2146C0.221125 18.7708 -7.6644e-08 18.2214 -7.6644e-08 17.5665C-7.6644e-08 16.9116 0.221125 16.3631 0.663372 15.9208C1.10716 15.477 1.6565 15.2551 2.3114 15.2551L28.1413 15.2551L16.8154 3.92933C16.3917 3.50558 16.1698 2.96625 16.1497 2.31136C16.1312 1.65646 16.3531 1.11714 16.8154 0.693384C17.2392 0.231105 17.7785 -3.64407e-05 18.4334 -3.64407e-05C19.0883 -3.64407e-05 19.6469 0.231105 20.1092 0.693384Z" fill="#E7793C"/>
</svg>
