<svg width="23" height="23" viewBox="0 0 23 23" fill="none" xmlns="http://www.w3.org/2000/svg">
<path d="M11.8156 0.400024C10.3469 0.400024 8.89253 0.689313 7.53559 1.25137C6.17866 1.81343 4.94572 2.63726 3.90717 3.67581C1.80971 5.77326 0.631378 8.61802 0.631378 11.5843C0.6216 14.1669 1.51582 16.6715 3.15902 18.6639L0.922168 20.9007C0.766978 21.058 0.661851 21.2577 0.62005 21.4747C0.57825 21.6917 0.601651 21.9161 0.687299 22.1198C0.780193 22.3211 0.930784 22.4901 1.11996 22.6056C1.30913 22.7211 1.52835 22.7778 1.7498 22.7685H11.8156C14.7819 22.7685 17.6266 21.5902 19.7241 19.4927C21.8215 17.3953 22.9999 14.5505 22.9999 11.5843C22.9999 8.61802 21.8215 5.77326 19.7241 3.67581C17.6266 1.57836 14.7819 0.400024 11.8156 0.400024ZM11.8156 20.5317H4.4452L5.48534 19.4915C5.69364 19.282 5.81057 18.9985 5.81057 18.703C5.81057 18.4076 5.69364 18.1241 5.48534 17.9145C4.02086 16.4517 3.10888 14.5263 2.90479 12.4665C2.70069 10.4066 3.21711 8.33972 4.36605 6.61793C5.51499 4.89613 7.22537 3.62596 9.20579 3.02382C11.1862 2.42167 13.3141 2.52481 15.227 3.31566C17.14 4.10651 18.7195 5.53613 19.6965 7.36097C20.6736 9.18581 20.9877 11.293 20.5853 13.3234C20.183 15.3539 19.0891 17.182 17.49 18.4964C15.8909 19.8108 13.8856 20.53 11.8156 20.5317Z" fill="white"/>
</svg>
