<svg width="16" height="16" viewBox="0 0 25 23" fill="none" xmlns="http://www.w3.org/2000/svg">
<path d="M12.5199 18.86L12.3999 18.98L12.2679 18.86C6.5679 13.688 2.7999 10.268 2.7999 6.80001C2.7999 4.40001 4.5999 2.60001 6.9999 2.60001C8.8479 2.60001 10.6479 3.80001 11.2839 5.43201H13.5159C14.1519 3.80001 15.9519 2.60001 17.7999 2.60001C20.1999 2.60001 21.9999 4.40001 21.9999 6.80001C21.9999 10.268 18.2319 13.688 12.5199 18.86ZM17.7999 0.200012C15.7119 0.200012 13.7079 1.17201 12.3999 2.69601C11.0919 1.17201 9.0879 0.200012 6.9999 0.200012C3.3039 0.200012 0.399902 3.09201 0.399902 6.80001C0.399902 11.324 4.4799 15.032 10.6599 20.636L12.3999 22.22L14.1399 20.636C20.3199 15.032 24.3999 11.324 24.3999 6.80001C24.3999 3.09201 21.4959 0.200012 17.7999 0.200012Z" fill="white"/>
</svg>
