<svg width="25" height="25" viewBox="0 0 25 25" fill="none" xmlns="http://www.w3.org/2000/svg">
<path d="M12.5999 2.11431C11.2491 2.11431 9.9116 2.38036 8.66368 2.89726C7.41576 3.41417 6.28187 4.17181 5.32676 5.12693C4.37164 6.08204 3.614 7.21593 3.09709 8.46385C2.58019 9.71177 2.31414 11.0493 2.31414 12.4C2.31414 13.7508 2.58019 15.0883 3.09709 16.3362C3.614 17.5841 4.37164 18.718 5.32676 19.6731C6.28187 20.6282 7.41576 21.3859 8.66368 21.9028C9.9116 22.4197 11.2491 22.6857 12.5999 22.6857C15.3278 22.6857 17.944 21.6021 19.873 19.6731C21.8019 17.7442 22.8856 15.128 22.8856 12.4C22.8856 9.67208 21.8019 7.05587 19.873 5.12693C17.944 3.19798 15.3278 2.11431 12.5999 2.11431ZM12.5999 0.400024C15.7825 0.400024 18.8347 1.66431 21.0851 3.91474C23.3356 6.16518 24.5999 9.21743 24.5999 12.4C24.5999 15.5826 23.3356 18.6349 21.0851 20.8853C18.8347 23.1357 15.7825 24.4 12.5999 24.4C9.41726 24.4 6.36501 23.1357 4.11457 20.8853C1.86414 18.6349 0.599854 15.5826 0.599854 12.4C0.599854 9.21743 1.86414 6.16518 4.11457 3.91474C6.36501 1.66431 9.41726 0.400024 12.5999 0.400024Z" fill="white"/>
<path d="M16.0285 6.4C17.1713 6.4 17.7428 6.97143 17.7428 8.11429C17.7428 9.25714 17.1713 9.82857 16.0285 9.82857C14.8856 9.82857 14.3142 9.25714 14.3142 8.11429C14.3142 6.97143 14.8856 6.4 16.0285 6.4ZM4.63535 19.864L3.42163 18.6503L8.39477 13.6789C8.82522 13.2482 9.39452 12.9843 10.0013 12.9341C10.6081 12.8838 11.2131 13.0506 11.7085 13.4046L15.4113 16.048C15.5696 16.1608 15.7615 16.2165 15.9556 16.2059C16.1496 16.1953 16.3343 16.1191 16.4793 15.9897L23.1719 10L24.3136 11.2789L17.6228 17.2669C17.1875 17.6564 16.6325 17.8862 16.0492 17.9183C15.4659 17.9504 14.8891 17.7829 14.4136 17.4434L10.7108 14.7983C10.5457 14.681 10.3445 14.626 10.1427 14.643C9.94094 14.6599 9.75169 14.7477 9.60849 14.8909L4.63535 19.8623V19.864Z" fill="white"/>
</svg>
