<svg width="30" height="31" viewBox="0 0 30 31" fill="current" stroke="current" xmlns="http://www.w3.org/2000/svg">
<path d="M21.998 19.4634H20.6079L20.1152 18.9883C21.2149 17.7108 22.0186 16.2059 22.4688 14.5815C22.919 12.9571 23.0046 11.2532 22.7195 9.59185C21.8925 4.70005 17.8101 0.793651 12.8831 0.195374C11.1509 -0.0237618 9.3916 0.15626 7.73972 0.721663C6.08783 1.28707 4.58718 2.22286 3.35259 3.45745C2.11801 4.69204 1.18221 6.19269 0.616804 7.84457C0.0514014 9.49646 -0.12862 11.2558 0.0905153 12.988C0.688793 17.915 4.5952 21.9973 9.48699 22.8244C11.1484 23.1095 12.8522 23.0239 14.4767 22.5737C16.1011 22.1235 17.6059 21.3198 18.8835 20.2201L19.3586 20.7128V22.1029L26.837 29.5814C27.5585 30.3028 28.7375 30.3028 29.4589 29.5814C30.1804 28.8599 30.1804 27.681 29.4589 26.9595L21.998 19.4634ZM11.4402 19.4634C7.05869 19.4634 3.52181 15.9266 3.52181 11.5451C3.52181 7.16355 7.05869 3.62667 11.4402 3.62667C15.8217 3.62667 19.3586 7.16355 19.3586 11.5451C19.3586 15.9266 15.8217 19.4634 11.4402 19.4634Z" fill="white"/>
</svg>
