<svg width="26" height="25" viewBox="0 0 26 25" fill="none" xmlns="http://www.w3.org/2000/svg">
<path d="M25.6168 12.5C25.6168 12.7193 25.5822 12.9249 25.5132 13.1168C25.4452 13.3087 25.3289 13.4868 25.1645 13.6513L14.3092 24.5066C13.9803 24.8355 13.5894 25 13.1365 25C12.6848 25 12.2944 24.8355 11.9655 24.5066C11.6365 24.1776 11.472 23.7939 11.472 23.3553C11.472 22.9167 11.6365 22.5329 11.9655 22.2039L20.0247 14.1447L1.60362 14.1447C1.13761 14.1447 0.753838 13.9868 0.452303 13.6711C0.150768 13.3564 0 12.966 0 12.5C0 12.034 0.157347 11.6431 0.47204 11.3273C0.787829 11.0126 1.17873 10.8553 1.64474 10.8553L20.0247 10.8553L11.9655 2.79605C11.6365 2.46711 11.472 2.08333 11.472 1.64474C11.472 1.20614 11.6365 0.822371 11.9655 0.493423C12.2944 0.164476 12.6848 0 13.1365 0C13.5894 0 13.9803 0.164476 14.3092 0.493423L25.1645 11.3487C25.3289 11.5132 25.4452 11.6913 25.5132 11.8832C25.5822 12.0751 25.6168 12.2807 25.6168 12.5Z" fill="white"/>
</svg>
