<svg width="16" height="17" viewBox="0 0 16 17" fill="none" xmlns="http://www.w3.org/2000/svg">
<path d="M-5.25386e-05 8.06816C-5.25386e-05 7.92701 0.0213629 7.79468 0.0641905 7.67118C0.106338 7.54767 0.178397 7.43299 0.280368 7.32713L7.01041 0.34023C7.21435 0.128506 7.4567 0.022644 7.73746 0.022644C8.01754 0.022644 8.25955 0.128506 8.46349 0.34023C8.66743 0.551954 8.7694 0.798966 8.7694 1.08126C8.7694 1.36356 8.66743 1.61057 8.46349 1.8223L3.46694 7.00954L14.8876 7.00954C15.1765 7.00954 15.4145 7.11117 15.6014 7.31442C15.7884 7.51697 15.8818 7.76822 15.8818 8.06816C15.8818 8.3681 15.7843 8.6197 15.5892 8.82296C15.3934 9.0255 15.151 9.12678 14.8621 9.12678H3.46694L8.46349 14.314C8.66743 14.5257 8.7694 14.7728 8.7694 15.0551C8.7694 15.3374 8.66743 15.5844 8.46349 15.7961C8.25955 16.0078 8.01754 16.1137 7.73746 16.1137C7.4567 16.1137 7.21435 16.0078 7.01041 15.7961L0.280368 8.80919C0.178397 8.70333 0.106338 8.58865 0.0641905 8.46514C0.0213629 8.34164 -5.25386e-05 8.20931 -5.25386e-05 8.06816V8.06816Z" fill="#E7793C"/>
</svg>
