<svg width="300" height="221" viewBox="0 0 300 221" fill="none" xmlns="http://www.w3.org/2000/svg">
<path d="M137.448 0.865433C122.411 3.7014 109.55 10.7583 98.8001 22.0363C86.9286 34.5673 80.1355 50.4619 79.2781 67.8734C77.5633 103.026 102.362 134.024 137.514 140.685C145.561 142.202 160.268 141.675 167.787 139.63C184.143 135.211 199.576 124.263 208.546 110.809C220.681 92.5398 224.11 69.852 217.779 49.6045C210.524 26.3892 191.266 8.3181 167.061 2.05258C158.751 -0.123856 145.429 -0.651474 137.448 0.865433ZM147.275 6.66928C138.24 11.0222 134.349 14.3198 134.612 17.2217C134.744 18.6727 135.404 19.596 136.987 20.5853C148.133 27.3125 153.607 31.7313 153.607 33.9078C153.607 34.2375 152.156 35.2268 150.309 36.0183C146.154 37.9309 144.242 40.569 143.846 44.9219C143.45 49.4726 144.901 51.2533 149.188 51.715C150.903 51.9129 152.288 52.1767 152.288 52.3086C152.288 52.3745 151.628 53.6276 150.837 55.0127C149.584 57.1231 149.32 58.5082 149.32 63.4546C149.32 68.5989 149.584 69.852 151.167 73.1497C154.266 79.5471 156.97 80.4045 165.346 77.7004C168.644 76.6452 174.514 75.2602 178.339 74.7325C187.836 73.2816 189.485 72.2923 194.432 64.9715C195.619 63.1908 197.465 61.2782 198.653 60.6846C201.489 59.1677 209.007 59.1677 212.832 60.6846C214.349 61.2782 215.998 61.7398 216.46 61.6079C217.845 61.3441 217.449 82.2511 215.998 87.1976C211.777 101.509 206.501 110.545 196.674 119.91C182.956 133.101 162.906 140.158 143.912 138.311C137.382 137.717 130.523 136.398 130.523 135.739C130.523 135.475 131.711 133.892 133.161 132.111C134.876 130.067 135.8 128.286 135.8 127.033C135.8 125.648 135.14 124.659 133.161 123.076C130.26 120.702 129.93 119.449 131.776 117.14C135.074 112.853 135.866 109.028 134.349 104.609C132.436 99.0032 128.017 95.7715 121.422 95.2438C118.058 94.98 116.937 94.5843 115.684 93.1993C113.574 90.891 111.859 91.0229 108.825 93.7929C106.583 95.8374 106.055 96.0353 104.472 95.4417C100.515 93.9248 96.6236 94.9141 91.7431 98.5415C90.6219 99.3989 89.3688 99.9924 89.0391 99.7286C88.2476 99.267 85.4117 91.8143 83.8948 86.2083C82.0481 79.4152 82.2459 61.3441 84.2245 54.0234C90.8858 29.423 109.287 11.286 133.755 5.15236C140.218 3.50354 141.537 3.30568 148.66 3.23973L154.596 3.10783L147.275 6.66928ZM166.929 5.08641C181.043 8.71381 193.772 17.0239 202.808 28.4337C209.007 36.2821 212.964 44.2624 215.602 54.0893L216.856 58.6401L215.405 58.2443C202.412 54.551 197.004 55.6062 191.925 62.9929C190.474 65.0375 188.826 67.2799 188.364 67.8734C187.045 69.5223 183.549 70.8413 178.999 71.3689C173.591 71.9625 167.259 73.4794 162.642 75.1283C157.762 76.909 156.113 76.2495 154.069 71.8306C152.947 69.4563 152.618 67.4777 152.618 63.1248C152.618 58.0465 152.815 57.2551 154.464 54.8808C155.454 53.4298 156.245 51.781 156.245 51.1874C156.245 49.8024 153.541 48.6152 150.309 48.6152C147.275 48.6152 145.956 46.9664 146.682 44.1304C147.341 41.5583 148.858 40.1073 152.749 38.3926C156.311 36.8097 157.3 35.2268 156.641 32.4568C156.113 30.2804 149.913 24.8722 143.912 21.3767C141.076 19.662 138.306 18.0791 137.778 17.7493C136.921 17.2217 136.921 16.9579 138.042 15.7708C139.361 14.2538 149.979 8.64786 155.058 6.73523C156.773 6.14165 158.289 5.21832 158.487 4.69069C158.949 3.43759 160.73 3.50354 166.929 5.08641ZM114.497 96.2331C115.684 97.3543 117.201 97.816 120.696 98.1458C126.039 98.6074 128.083 99.8605 130.326 103.752C132.568 107.577 132.304 110.941 129.534 115.228C128.281 117.206 127.226 119.449 127.226 120.306C127.226 121.559 130.787 125.78 131.908 125.78C132.172 125.78 132.568 126.242 132.766 126.835C133.227 127.956 127.621 134.354 126.17 134.354C124.522 134.354 113.046 128.088 109.089 125.054C106.912 123.34 103.153 119.91 100.845 117.404C96.5577 112.919 90.9517 105.071 90.9517 103.62C90.9517 102.697 95.1067 99.7946 98.4703 98.4096C100.845 97.4203 101.24 97.4203 103.878 98.4096C107.044 99.5967 108.033 99.3329 110.672 96.4969C112.65 94.4524 112.584 94.4524 114.497 96.2331Z" fill="#F9F9F9"/>
<path d="M112.386 172.079C112.188 172.606 112.056 182.631 112.188 194.305L112.386 215.608L114.563 217.52C116.541 219.301 117.069 219.433 122.015 219.433H127.292L127.094 215.937C126.896 212.838 126.764 212.508 125.247 212.31C122.081 211.914 121.949 211.189 121.949 192.326C121.949 171.881 122.015 172.211 116.211 171.485C113.507 171.221 112.65 171.287 112.386 172.079Z" fill="#F9F9F9"/>
<path d="M94.9088 173.134C91.809 174.057 91.4133 180.587 94.3811 181.576C97.0852 182.433 101.768 181.972 102.625 180.719C103.746 179.268 103.746 175.838 102.691 174.387C101.702 173.134 97.349 172.475 94.9088 173.134Z" fill="#F9F9F9"/>
<path d="M136.129 175.376C135.865 176.102 132.502 216.399 132.502 218.707C132.502 219.169 134.216 219.433 137.316 219.433H142.197L142.988 203.077C143.45 194.107 143.912 186.72 144.043 186.588C144.175 186.457 145.626 192.326 147.407 199.581L150.573 212.838H155.915H161.257L164.489 199.449L167.72 186.127L168.248 191.733C168.512 194.833 168.974 202.219 169.237 208.221L169.765 219.103L174.58 219.301L179.328 219.499V217.322C179.262 211.585 176.031 175.64 175.503 175.113C175.173 174.783 172.139 174.651 168.776 174.717L162.642 174.915L160.532 183.818C159.344 188.699 157.828 195.096 157.234 197.998C156.047 203.077 155.981 203.209 155.453 200.966C155.189 199.713 153.739 193.513 152.288 187.182C150.837 180.851 149.32 175.442 148.858 175.113C147.407 174.255 136.459 174.453 136.129 175.376Z" fill="#F9F9F9"/>
<path d="M0.200531 176.168C0.00267229 176.63 -0.0632805 178.344 0.0686251 179.927L0.266483 182.829L5.74056 183.027L11.1487 183.225V201.296V219.433L13.1273 219.499C14.2485 219.565 15.8313 219.565 16.7547 219.565C17.678 219.565 19.129 219.565 20.0523 219.499L21.7011 219.433V201.296V183.159H26.1859C31.66 183.159 32.9131 182.17 32.9131 178.015V175.245H16.7547C3.56412 175.245 0.464342 175.442 0.200531 176.168Z" fill="#F9F9F9"/>
<path d="M223.78 177.751C222.395 178.674 221.538 181.114 221.538 184.082V187.116H218.9H216.262V190.414V193.711H218.834H221.472L221.67 204.66L221.868 215.608L224.044 217.52C226.155 219.433 226.418 219.499 232.288 219.301L238.356 219.103L238.554 217.191C238.686 216.201 238.62 214.618 238.422 213.761C238.092 212.442 237.564 212.178 235.52 212.178C234.135 212.178 232.684 211.848 232.222 211.387C231.695 210.859 231.431 207.825 231.431 202.153V193.711H235.388H239.345V190.414V187.116H235.388H231.431V182.17V177.223H228.001C226.089 177.223 224.176 177.487 223.78 177.751Z" fill="#F9F9F9"/>
<path d="M252.734 186.457C249.238 187.248 245.941 190.282 244.16 194.173C242.775 197.141 242.511 198.79 242.511 203.538C242.577 212.046 244.688 216.267 250.228 218.839C254.053 220.62 261.044 220.488 265.727 218.576C268.892 217.322 269.354 216.861 269.156 215.542C268.76 213.036 266.98 210.727 265.793 211.189C265.199 211.453 263.154 211.914 261.308 212.31C257.153 213.167 254.383 212.31 253.262 209.804C251.679 206.308 251.877 206.242 261.044 206.242H269.552L269.948 204.198C271.596 195.822 267.969 188.897 260.846 186.786C257.285 185.731 255.966 185.665 252.734 186.457ZM259.725 194.767C260.516 195.756 261.11 197.207 261.11 198.064C261.11 199.581 260.912 199.647 256.823 199.647H252.536V197.669C252.536 193.448 257.219 191.601 259.725 194.767Z" fill="#F9F9F9"/>
<path d="M282.676 186.588C275.619 188.501 272.586 197.734 277.466 202.615C278.455 203.67 280.896 205.187 282.874 206.045C289.008 208.749 290.063 209.672 289.272 211.782C288.744 213.167 283.072 213.233 279.774 211.848C276.609 210.529 275.883 210.859 274.894 214.157C273.905 217.388 274.102 217.586 279.511 219.169C282.017 219.895 284.655 220.158 288.216 219.961C292.569 219.697 293.69 219.367 295.735 217.784C299.692 214.816 301.143 209.606 299.033 205.649C297.648 202.879 294.746 200.702 290.195 198.988C285.578 197.273 283.929 195.36 285.908 193.909C287.491 192.788 289.074 192.854 293.295 194.305L296.856 195.558L298.109 193.448C300.286 189.886 299.824 188.633 296.065 187.512C291.448 186.127 285.644 185.731 282.676 186.588Z" fill="#F9F9F9"/>
<path d="M34.364 187.314C32.7152 189.293 32.3854 191.403 33.4407 193.382C34.2981 194.964 34.5619 197.932 34.7597 207.364C34.8916 214.025 35.2874 219.433 35.6171 219.499C35.9469 219.499 37.5297 219.499 39.1786 219.499C45.4441 219.499 44.7846 220.752 44.7846 209.012C44.7846 199.251 44.8505 198.46 46.1696 197.273C47.0269 196.481 48.5439 196.02 50.4565 196.02C52.0394 195.954 53.4903 195.756 53.6882 195.558C53.952 195.36 54.5456 193.448 55.0732 191.337C56.2603 187.05 55.8646 186.457 52.0394 186.457C49.0055 186.457 46.7631 187.644 45.0484 190.216L43.6634 192.326L42.1464 190.282C40.8933 188.567 37.3319 186.457 35.6831 186.457C35.3533 186.457 34.7597 186.852 34.364 187.314Z" fill="#F9F9F9"/>
<path d="M63.5813 187.512C61.4048 188.039 59.4262 188.699 59.0965 189.029C58.4369 189.688 59.69 194.767 60.6793 195.36C61.0091 195.624 63.3834 195.294 65.8896 194.767C71.4296 193.448 73.4082 193.843 74.4635 196.349C75.4528 198.658 74.7932 199.845 72.8806 199.383C70.2425 198.724 63.911 200.175 61.6027 201.889C60.3496 202.879 58.8986 204.857 58.305 206.572C55.535 213.695 59.9539 220.092 67.5384 220.092C70.6382 220.092 72.1551 219.565 75.5847 217.454C76.8378 216.663 77.1675 216.663 78.2887 217.652C79.0142 218.312 80.4652 219.103 81.5864 219.433C83.433 219.895 83.8288 219.763 85.0819 218.246C86.0712 216.927 86.335 216.003 86.0052 214.486C85.7414 213.431 85.3457 208.023 85.0819 202.615C84.6202 191.469 84.0926 190.018 79.6737 187.71C76.6399 186.193 69.517 186.061 63.5813 187.512ZM75.123 208.155C75.123 211.123 73.4082 212.838 70.5063 212.838C68.3299 212.838 67.2087 211.716 67.2087 209.474C67.2087 207.1 69.3851 205.583 72.6168 205.583C75.123 205.583 75.123 205.583 75.123 208.155Z" fill="#F9F9F9"/>
<path d="M91.8747 186.852C89.1707 187.446 89.1707 193.25 91.8747 194.107C92.6002 194.371 93.4576 194.898 93.7214 195.294C93.9852 195.69 94.249 201.296 94.249 207.693V219.433H99.1955H104.142V205.253V191.073L102.361 189.095C100.844 187.446 99.855 187.05 96.8871 186.852C94.9086 186.72 92.6002 186.72 91.8747 186.852Z" fill="#F9F9F9"/>
<path d="M191.53 187.512C189.353 188.039 187.309 188.765 186.979 189.095C186.253 189.82 187.572 194.701 188.562 195.36C188.957 195.624 191.464 195.294 194.168 194.701C198.784 193.645 199.246 193.645 200.763 194.635C202.214 195.558 202.807 197.273 202.28 198.79C202.148 199.054 200.301 199.317 198.125 199.383C192.915 199.581 189.881 200.9 187.506 204C185.858 206.11 185.594 207.034 185.594 210.595C185.594 214.091 185.858 215.014 187.243 216.465C191.002 220.488 196.674 221.28 201.62 218.444C204.258 216.927 204.588 216.927 205.973 217.85C206.831 218.378 208.479 219.103 209.601 219.433C211.513 219.961 211.843 219.829 213.03 217.916C213.822 216.597 214.151 215.344 213.887 214.486C213.624 213.761 213.228 208.683 213.03 203.143C212.568 192.326 212.239 191.271 208.084 188.171C205.775 186.391 197.267 186.061 191.53 187.512ZM202.939 208.353C203.203 211.057 201.422 212.838 198.455 212.838C196.278 212.838 195.157 211.716 195.157 209.474C195.157 207.1 197.399 205.451 200.433 205.715C202.544 205.913 202.741 206.11 202.939 208.353Z" fill="#F9F9F9"/>
</svg>
