<svg width="30" height="31" viewBox="0 0 30 31" fill="none" xmlns="http://www.w3.org/2000/svg">
<path d="M21.998 19.3586H20.6079L20.1152 18.8835C21.2149 17.6059 22.0186 16.1011 22.4688 14.4767C22.919 12.8522 23.0046 11.1484 22.7195 9.487C21.8925 4.5952 17.8101 0.688793 12.8831 0.0905153C11.1509 -0.12862 9.3916 0.0514014 7.73972 0.616804C6.08783 1.18221 4.58718 2.11801 3.35259 3.35259C2.11801 4.58718 1.18221 6.08783 0.616804 7.73972C0.0514014 9.3916 -0.12862 11.1509 0.0905153 12.8831C0.688793 17.8101 4.5952 21.8925 9.48699 22.7195C11.1484 23.0046 12.8522 22.919 14.4767 22.4688C16.1011 22.0186 17.6059 21.2149 18.8835 20.1152L19.3586 20.6079V21.998L26.837 29.4765C27.5585 30.198 28.7375 30.198 29.4589 29.4765C30.1804 28.7551 30.1804 27.5761 29.4589 26.8546L21.998 19.3586ZM11.4402 19.3586C7.05869 19.3586 3.52181 15.8217 3.52181 11.4402C3.52181 7.05869 7.05869 3.52181 11.4402 3.52181C15.8217 3.52181 19.3586 7.05869 19.3586 11.4402C19.3586 15.8217 15.8217 19.3586 11.4402 19.3586Z" fill="white"/>
</svg>
