<svg width="27" height="18" viewBox="0 0 27 18" fill="none" xmlns="http://www.w3.org/2000/svg">
<path d="M0.534301 14.4332L12.5026 0.456221C12.6451 0.290323 12.7995 0.173088 12.9657 0.104516C13.1319 0.0348387 13.31 0 13.5 0C13.69 0 13.8681 0.0348387 14.0343 0.104516C14.2005 0.173088 14.3549 0.290323 14.4974 0.456221L26.5013 14.4332C26.8338 14.8203 27 15.3041 27 15.8848C27 16.4654 26.8219 16.9631 26.4657 17.3779C26.1095 17.7926 25.6939 18 25.219 18C24.7441 18 24.3285 17.7926 23.9723 17.3779L13.5 5.18433L3.0277 17.3779C2.69525 17.765 2.28586 17.9585 1.79953 17.9585C1.31224 17.9585 0.890501 17.7512 0.534301 17.3364C0.1781 16.9217 -2.1681e-07 16.4378 -2.1681e-07 15.8848C-2.1681e-07 15.3318 0.1781 14.8479 0.534301 14.4332Z" fill="#F9F9F9"/>
</svg>
