<svg width="75" height="88" viewBox="0 0 75 88" fill="none" xmlns="http://www.w3.org/2000/svg">
<path d="M71.875 12.5H53.125V7.8125C53.125 5.7405 52.3019 3.75336 50.8368 2.28823C49.3716 0.8231 47.3845 0 45.3125 0H29.6875C27.6155 0 25.6284 0.8231 24.1632 2.28823C22.6981 3.75336 21.875 5.7405 21.875 7.8125V12.5H3.125C2.2962 12.5 1.50134 12.8292 0.915292 13.4153C0.329241 14.0013 0 14.7962 0 15.625C0 16.4538 0.329241 17.2487 0.915292 17.8347C1.50134 18.4208 2.2962 18.75 3.125 18.75H6.44531L10.1562 78.3047C10.4336 83.5488 14.4531 87.5 19.5312 87.5H55.4688C60.5723 87.5 64.5117 83.6367 64.8438 78.3203L68.5547 18.75H71.875C72.7038 18.75 73.4987 18.4208 74.0847 17.8347C74.6708 17.2487 75 16.4538 75 15.625C75 14.7962 74.6708 14.0013 74.0847 13.4153C73.4987 12.8292 72.7038 12.5 71.875 12.5ZM25.1113 75H25C24.1901 75.0005 23.4117 74.6866 22.8287 74.1244C22.2458 73.5622 21.9039 72.7957 21.875 71.9863L20.3125 28.2363C20.283 27.4075 20.5839 26.6009 21.1491 25.994C21.7142 25.3871 22.4974 25.0295 23.3262 25C24.155 24.9705 24.9616 25.2714 25.5685 25.8366C26.1754 26.4017 26.533 27.1849 26.5625 28.0137L28.125 71.7637C28.1399 72.1741 28.0737 72.5835 27.9303 72.9683C27.7868 73.3532 27.5689 73.706 27.289 74.0065C27.0091 74.3071 26.6727 74.5496 26.2991 74.72C25.9254 74.8905 25.5218 74.9856 25.1113 75ZM40.625 71.875C40.625 72.7038 40.2958 73.4987 39.7097 74.0847C39.1237 74.6708 38.3288 75 37.5 75C36.6712 75 35.8763 74.6708 35.2903 74.0847C34.7042 73.4987 34.375 72.7038 34.375 71.875V28.125C34.375 27.2962 34.7042 26.5013 35.2903 25.9153C35.8763 25.3292 36.6712 25 37.5 25C38.3288 25 39.1237 25.3292 39.7097 25.9153C40.2958 26.5013 40.625 27.2962 40.625 28.125V71.875ZM46.875 12.5H28.125V7.8125C28.1226 7.60666 28.1615 7.40242 28.2391 7.21178C28.3168 7.02115 28.4318 6.84796 28.5774 6.7024C28.723 6.55683 28.8961 6.44183 29.0868 6.36414C29.2774 6.28645 29.4817 6.24764 29.6875 6.25H45.3125C45.5183 6.24764 45.7226 6.28645 45.9132 6.36414C46.1039 6.44183 46.277 6.55683 46.4226 6.7024C46.5682 6.84796 46.6832 7.02115 46.7609 7.21178C46.8386 7.40242 46.8774 7.60666 46.875 7.8125V12.5ZM53.125 71.9863C53.0961 72.7957 52.7542 73.5622 52.1713 74.1244C51.5883 74.6866 50.8099 75.0005 50 75H49.8867C49.4764 74.9854 49.073 74.8901 48.6996 74.7195C48.3261 74.5489 47.99 74.3064 47.7103 74.0059C47.4306 73.7053 47.2129 73.3526 47.0695 72.9679C46.9262 72.5832 46.8601 72.174 46.875 71.7637L48.4375 28.0137C48.4521 27.6033 48.5474 27.1998 48.718 26.8263C48.8885 26.4527 49.131 26.1164 49.4315 25.8366C49.732 25.5567 50.0847 25.3388 50.4695 25.1953C50.8542 25.0517 51.2634 24.9854 51.6738 25C52.0842 25.0146 52.4877 25.1099 52.8612 25.2805C53.2348 25.451 53.5711 25.6935 53.8509 25.994C54.1308 26.2945 54.3487 26.6472 54.4922 27.032C54.6358 27.4167 54.7021 27.8259 54.6875 28.2363L53.125 71.9863Z" fill="white"/>
</svg>
